<?xml version="1.0" standalone="no"?>
<!DOCTYPE svg PUBLIC "-//W3C//DTD SVG 20010904//EN"
 "http://www.w3.org/TR/2001/REC-SVG-20010904/DTD/svg10.dtd">
<svg version="1.0" xmlns="http://www.w3.org/2000/svg"
 width="360.000000pt" height="360.000000pt" viewBox="0 0 360.000000 360.000000"
 preserveAspectRatio="xMidYMid meet">
<metadata>
Created by potrace 1.11, written by Peter Selinger 2001-2013
</metadata>
<g transform="translate(0.000000,360.000000) scale(0.100000,-0.100000)"
fill="#000000" stroke="none">
<path d="M140 1800 l0 -1690 609 0 609 0 232 310 c128 171 236 310 240 310 7
0 220 -324 350 -532 l55 -88 608 0 607 0 0 150 0 151 -475 724 c-261 399 -475
727 -475 730 0 3 169 254 375 559 206 305 375 557 375 560 0 4 -93 119 -206
256 l-206 250 -1349 0 -1349 0 0 -1690z m750 -5 l0 -1385 -225 0 -225 0 0
1385 0 1385 225 0 225 0 0 -1385z m1074 1373 c-12 -20 -756 -1122 -760 -1127
-2 -2 -4 253 -4 567 l0 572 386 0 c305 0 384 -3 378 -12z m821 -93 c48 -58 85
-111 82 -119 -3 -7 -168 -254 -366 -548 -199 -295 -361 -539 -361 -543 0 -5
212 -331 470 -725 259 -395 470 -721 470 -724 0 -3 -152 -5 -337 -4 l-338 3
-325 495 c-179 273 -393 599 -476 726 l-151 231 364 539 c200 296 400 592 444
657 l80 117 178 0 178 0 88 -105z m-1354 -1725 c117 -179 213 -332 213 -340 0
-8 -100 -145 -222 -303 l-222 -288 0 637 c0 368 4 634 9 629 5 -6 104 -156
222 -335z"/>
</g>
</svg>
